PathFileType	4	(X/Y/Z)	W:\OA_GaitRetraining\ACL OpenCap study\PS1\Edited\Trimmed_C90_L101.trc
DataRate	CameraRate	NumFrames	NumMarkers	Units	OrigDataRate	OrigDataStartFrame	OrigNumFrames
200.00	200.00	       7	46	mm	200.00	111	       147
Frame#	Time	C7			R_Shoulder			L_Shoulder			Sternum			R_humerus			R_elbow_med			R_elbow_lat			R_forearm			R_wrist_radius			R_wrist_ulna			L_humerus			L_elbow_med			L_elbow_lat			L_forearm			L_wrist_radius			L_wrist_ulna			r.ASIS			r.PSIS			L.ASIS			L.PSIS			r_thigh1			r_thigh2			r_thigh3			r_thigh4			r_thigh5			r_knee			r_shank_antsup			r_sh2			r_sh3			r_sh4			r_ankle			r_calc			r_5meta			r_toe			L_thigh1			L_thigh2			L_thigh3			L_thigh4			L_knee			L_shank_antsup			L_sh2			L_sh3			L_ankle			L_calc			L_5meta			L_toe			
		X1	Y1	Z1	X2	Y2	Z2	X3	Y3	Z3	X4	Y4	Z4	X5	Y5	Z5	X6	Y6	Z6	X7	Y7	Z7	X8	Y8	Z8	X9	Y9	Z9	X10	Y10	Z10	X11	Y11	Z11	X12	Y12	Z12	X13	Y13	Z13	X14	Y14	Z14	X15	Y15	Z15	X16	Y16	Z16	X17	Y17	Z17	X18	Y18	Z18	X19	Y19	Z19	X20	Y20	Z20	X21	Y21	Z21	X22	Y22	Z22	X23	Y23	Z23	X24	Y24	Z24	X25	Y25	Z25	X26	Y26	Z26	X27	Y27	Z27	X28	Y28	Z28	X29	Y29	Z29	X30	Y30	Z30	X31	Y31	Z31	X32	Y32	Z32	X33	Y33	Z33	X34	Y34	Z34	X35	Y35	Z35	X36	Y36	Z36	X37	Y37	Z37	X38	Y38	Z38	X39	Y39	Z39	X40	Y40	Z40	X41	Y41	Z41	X42	Y42	Z42	X43	Y43	Z43	X44	Y44	Z44	X45	Y45	Z45	X46	Y46	Z46	

111	0.550	1039.89954	-149.32773	1208.41833	1041.88501	-314.65442	1169.77039	1166.78809	-91.47955	1128.58447	1115.31445	-224.92375	1085.43420	810.45612	-388.01596	1167.24622	711.27277	-316.09036	1137.90466	720.98126	-385.54800	1162.52051	594.83508	-448.78687	1095.40454	508.40652	-446.93692	1091.19006	529.46136	-463.24960	1048.37878	1258.42395	-84.63256	998.57300	1269.99634	-188.44774	843.55542	1329.80408	-157.89188	877.79382	1341.80945	-214.11520	952.96002	1308.70667	-318.53787	1041.46423	1356.92639	-327.05893	1022.03662	877.66663	-319.47888	758.85809	751.27777	-165.57671	843.18427	979.72089	-74.43089	764.49445	773.27802	-102.85497	848.72589	881.90369	-374.56354	734.43439	979.20343	-429.94128	685.65820	964.68713	-464.83798	643.30072	823.68164	-398.69867	642.40369	920.65863	-442.29089	596.84827	1073.05798	-502.46692	544.88184	1106.66821	-495.04193	444.04565	1120.16846	-438.07361	338.84854	1040.83447	-458.03900	452.89322	1045.20996	-398.77759	350.67316	1082.26880	-347.21820	203.87683	1073.39929	-256.45221	183.75079	1147.26013	-417.65417	145.25189	1207.67493	-412.72592	193.54414	1025.77820	-6.31577	662.66400	1082.76196	25.23792	541.05078	930.64209	64.08649	648.28619	990.46466	88.99326	523.44373	1076.62708	117.47055	406.56461	1066.97717	202.61131	267.71817	995.58563	219.56320	320.19568	943.57690	265.81000	220.81476	937.42822	329.83719	128.42622	852.96570	327.50476	108.43213	1009.86957	352.10336	28.87403	1039.35535	286.77942	57.11269	
112	0.555	1047.26929	-158.47508	1212.56628	1046.80823	-325.12921	1175.35059	1173.94519	-105.60052	1135.55786	1121.91492	-237.14854	1090.83533	814.91705	-394.12170	1176.29028	716.11011	-320.16110	1145.51709	725.10846	-389.44644	1171.51514	596.73590	-451.12289	1107.75427	510.38000	-447.45532	1103.91370	530.39130	-464.98077	1061.08984	1267.76416	-102.02152	1008.51398	1278.18982	-204.65808	852.71497	1338.95764	-175.46967	887.50690	1347.37708	-231.91486	963.40308	1310.25818	-335.08560	1051.07959	1358.22900	-344.80948	1033.00378	884.60034	-328.28030	762.06763	760.24609	-172.51862	846.11401	989.24640	-83.77509	767.71588	782.81775	-110.22772	851.95776	887.08148	-383.84885	737.35907	984.17145	-440.89783	690.58594	967.37244	-475.57626	646.80316	827.73651	-406.45352	643.42236	926.19781	-451.05484	599.70648	1078.09692	-514.37079	549.59344	1113.71741	-508.43686	448.98022	1130.12024	-452.59763	343.53317	1048.68518	-470.09708	456.21716	1055.57397	-411.93732	353.87799	1096.32227	-362.32953	207.08105	1089.75879	-271.55600	185.80865	1160.71912	-434.72040	150.33257	1220.54431	-430.40436	199.66327	1033.97937	-13.59080	663.18158	1088.06531	19.86736	540.59357	938.67322	57.08795	651.81458	995.34424	83.90621	526.15997	1078.72620	113.99712	407.52036	1068.73865	200.64685	269.00214	997.35199	217.27972	322.06235	945.35278	264.42419	223.02209	939.67651	329.06595	131.09167	854.66248	327.06509	112.24279	1010.33582	352.08972	29.67302	1040.00720	286.52429	57.11291	
113	0.560	1053.56311	-170.17967	1217.38770	1050.88635	-335.35791	1181.30908	1180.84827	-119.79447	1142.55896	1127.71545	-249.30000	1095.90869	818.74554	-399.77069	1185.13342	720.99261	-324.36169	1153.91052	729.21332	-393.35370	1180.43933	599.00983	-453.62140	1119.92920	512.55316	-447.81485	1116.09668	532.02173	-467.41077	1074.01294	1276.70544	-119.43117	1018.42444	1286.06165	-220.39012	861.60016	1347.74780	-192.62022	896.95813	1352.79602	-249.31425	973.47095	1311.50110	-351.64899	1060.19324	1359.64294	-362.12866	1043.10315	891.54077	-337.26938	765.29608	769.09283	-179.76202	849.16394	998.89020	-93.45329	770.94452	792.17365	-118.04759	855.46820	892.18042	-393.26523	740.24945	988.93256	-451.61615	693.35522	971.82068	-485.74051	649.72650	834.69452	-413.37506	645.55798	931.80951	-459.90463	602.39764	1082.64673	-526.60437	554.08032	1120.58887	-521.78619	453.66348	1139.89783	-467.17648	347.99432	1056.13403	-482.27246	459.38409	1065.62610	-424.78741	356.55356	1110.21106	-377.58713	210.07683	1106.07471	-286.86862	187.81409	1173.91772	-451.63220	155.03876	1232.97644	-448.29776	205.34613	1042.57495	-21.03222	663.61438	1092.56335	13.53717	540.31873	946.57361	49.79001	655.71747	1000.18732	78.60126	529.11920	1080.53101	110.51711	408.74039	1070.12366	198.21136	270.96674	999.08252	215.05031	324.17444	947.11774	263.06479	225.44250	940.89740	328.79749	132.01939	856.99457	326.61594	116.12881	1011.02698	351.96011	30.44940	1040.75708	286.19052	57.13260	
114	0.565	1060.01074	-181.10226	1222.17883	1054.87683	-345.89978	1186.82898	1187.41431	-134.19423	1149.63928	1133.61267	-261.65411	1101.55042	821.89996	-405.46964	1193.33496	727.89270	-329.12878	1159.17249	732.83606	-397.18634	1189.18164	601.22394	-455.63739	1131.41235	514.87286	-448.05771	1127.69312	533.39496	-468.65085	1085.73706	1285.79077	-136.71960	1028.45215	1293.22449	-235.00250	869.69922	1356.19812	-209.27080	906.23645	1358.18591	-266.33771	982.87970	1313.04639	-367.84656	1068.49854	1361.33093	-379.18097	1052.66772	898.36218	-348.37366	768.27808	777.90125	-187.35318	852.47076	1008.63226	-103.42377	774.21375	801.67664	-126.04219	858.97589	897.29913	-402.92136	742.96783	993.53076	-462.33029	696.61090	977.08478	-495.31909	652.15289	840.06146	-421.27234	647.17053	937.67859	-468.77780	604.81726	1087.57825	-538.40649	558.07819	1127.25598	-535.10559	457.97357	1149.42834	-481.80862	352.11536	1063.08875	-494.51874	462.44083	1075.75684	-437.91705	359.22394	1123.98010	-392.90045	212.89508	1122.24463	-302.23935	189.65312	1186.82983	-468.79526	159.48140	1245.17615	-466.31659	210.76468	1050.57019	-28.50206	664.44598	1097.42041	7.94394	540.22522	954.54602	42.18439	659.95642	1004.87958	73.20058	532.30096	1082.16211	106.87882	410.43774	1071.64453	195.71230	273.28986	1000.87616	212.40819	327.20053	949.04004	261.54773	228.17465	943.41632	327.83209	134.69719	859.94525	326.16772	120.10470	1011.77252	351.78738	31.43627	1041.71814	285.69058	57.15063	
115	0.570	1066.02893	-192.14633	1227.28076	1059.24963	-357.07965	1192.67590	1193.81323	-148.57576	1156.69666	1139.36206	-274.30499	1107.28540	825.81128	-411.49738	1201.58752	733.12415	-333.98572	1166.08484	737.00049	-401.37277	1197.16248	603.21906	-457.46762	1142.67126	517.24219	-448.20831	1138.78833	534.81952	-469.74579	1096.94531	1293.12427	-154.31450	1037.95361	1300.71399	-250.33687	878.35815	1364.36646	-225.66710	915.12360	1363.45508	-283.03256	991.96411	1314.67676	-383.89667	1076.26062	1363.22375	-395.79996	1061.30957	904.74310	-355.61600	770.24829	786.80096	-195.17285	855.92419	1018.29187	-113.80025	777.52301	811.15906	-134.42131	862.57635	902.40692	-412.71982	745.49182	998.20074	-473.10193	699.73645	981.88416	-505.45279	654.98352	846.19250	-428.88525	648.85205	943.24310	-477.90442	607.21454	1092.37646	-550.09552	561.72772	1133.70752	-548.42529	461.91959	1158.73853	-496.48871	355.90561	1070.74500	-506.33435	464.83646	1085.31348	-451.23352	361.99722	1137.75146	-408.12177	215.05595	1137.92993	-317.46585	191.15073	1199.33606	-486.05914	163.65514	1256.73950	-484.00412	215.14752	1058.64417	-36.04662	665.28607	1102.13953	2.38230	540.30212	962.57257	34.56892	664.07874	1009.42865	67.62593	535.81879	1083.47412	103.18291	412.58978	1072.99866	192.96602	276.06198	1002.37347	209.90643	329.93567	950.94733	259.89432	231.09108	945.96710	326.77335	137.41977	862.42432	325.31775	124.78084	1012.53455	351.48465	32.49498	1042.67236	285.24402	57.23153	
116	0.575	1071.68323	-203.73642	1232.40491	1063.57935	-368.43887	1198.46008	1200.00269	-162.97699	1163.86719	1144.92957	-287.18246	1113.12268	829.62958	-417.64499	1209.48145	738.35992	-338.69797	1173.29236	740.86548	-404.79370	1204.76648	605.75537	-459.02399	1153.67566	519.86115	-448.18518	1149.24817	536.54968	-470.65741	1107.39954	1300.54517	-171.52773	1047.34375	1307.82520	-264.63046	886.24799	1371.63525	-242.11917	924.20917	1368.72266	-299.37912	1000.60254	1316.82336	-399.75632	1083.54822	1365.52905	-412.27802	1069.41052	911.85565	-365.09167	773.69000	795.69727	-203.23965	859.42560	1028.09705	-124.45423	781.02509	820.77789	-142.89856	866.22028	905.87585	-423.08685	747.07043	1002.82446	-483.88223	702.52631	986.45990	-515.72992	657.45575	852.39581	-436.63202	650.44232	948.81055	-487.10764	609.45447	1097.11987	-561.76434	564.90442	1140.05725	-561.67273	465.38269	1168.00586	-511.26743	359.39423	1077.98975	-518.15948	467.05270	1095.23450	-464.30072	364.05051	1150.64307	-423.66550	217.43777	1154.00220	-333.43472	192.79198	1211.92712	-503.24225	167.27960	1268.62781	-502.56128	220.45769	1066.72681	-43.75551	666.19867	1106.75720	-3.32958	540.70593	970.51025	26.51956	668.75287	1013.74133	61.86167	539.66595	1084.63843	99.32654	415.13251	1074.04163	189.59612	279.33139	1003.82111	207.32289	333.13232	953.07178	257.98264	234.29152	949.08783	325.43259	140.59230	865.52679	324.35889	129.61449	1013.39612	351.17825	33.88064	1043.95349	284.63171	57.34506	
117	0.580	1078.16321	-214.80772	1237.62830	1067.87109	-380.12170	1204.26416	1205.58716	-177.65240	1170.82007	1150.74597	-300.02695	1119.20190	833.38794	-424.01489	1216.86841	743.51147	-343.50958	1180.52039	744.86224	-409.11133	1212.80554	607.89587	-460.59979	1162.65808	522.54529	-447.99451	1159.16309	538.41071	-471.28677	1117.33887	1307.33862	-188.46602	1056.40881	1314.95557	-278.60446	893.80408	1378.22583	-258.19098	932.49713	1374.00427	-315.49390	1008.78802	1319.52869	-415.43457	1090.39502	1368.16272	-428.64026	1076.87219	919.03485	-374.65778	777.13391	804.73218	-211.44980	863.20917	1037.79785	-135.28468	784.47314	830.07239	-151.46771	870.24597	910.87408	-432.84210	749.54431	1007.58533	-494.63052	705.13330	991.26013	-525.85040	659.61127	858.61548	-444.65762	652.00800	954.38971	-496.45111	611.59973	1101.81006	-573.30774	567.70526	1146.19177	-574.86389	468.51031	1176.34216	-525.98920	362.62567	1085.04932	-529.95361	468.85684	1104.88354	-477.31375	365.82980	1163.74683	-439.23447	219.32127	1169.49524	-349.25748	193.87544	1223.81946	-520.60181	170.75806	1280.06787	-520.68530	224.54994	1075.25098	-51.01429	667.51782	1111.12927	-9.07723	541.33710	978.60626	18.45823	673.03705	1018.07745	55.90635	543.82800	1085.58777	95.30112	418.10971	1075.89380	186.87421	282.67453	1005.37268	204.48482	336.50989	955.09918	255.94147	237.77193	952.47858	323.76056	144.03380	869.31989	323.13458	134.49139	1014.34497	350.73376	35.51947	1045.13843	283.88724	57.40809	
